<svg width="400" height="400" viewBox="0 0 400 400" fill="none" xmlns="http://www.w3.org/2000/svg">
  <rect width="400" height="400" fill="#BBEE66" />
  <path
    d="M233 360C236 356 237 352 238 345C241 352 247 357 252 360C252 354 253 347 256 339C257 344 260 348 262 350C262 342 264 336 266 332C267 336 268 339 270 342C271 335 274 330 278 324C278 327 278 331 279 333C280 328 284 315 288 310C287 314 285 322 285 330C287 319 342 237 342 197C342 137 302 37 202 37C82 37 42 137 42 193C42 324 162 330 197 359C197 352 196 347 194 343C204 348 208.202 351 217.222 358C216.22 352.5 215.503 349.5 214 346C221 349 230 353 233 360Z"
    fill="#660066" />
  <path
    d="M223.5 354.5C223.5 344.914 219.228 340.721 214 334C203.5 320.5 283.5 257 276 291.5C273.313 303.861 270 306 270 323C270 347 291.5 361 303 368C294.5 376 270.5 380 255 380C236.714 380 216.5 376.5 208 372C211.5 369.5 223.5 364.086 223.5 354.5Z"
    fill="#661133" />
  <path fill-rule="evenodd" clip-rule="evenodd"
    d="M298.511 371.165C287.857 377.055 268.3 380 255 380C239.063 380 221.662 377.342 211.827 373.68C220.668 367.082 225.5 360.256 225.5 354.5C225.5 344.876 222.475 339.831 218.023 334.25L218.022 334.249C217.475 333.563 216.921 332.869 216.368 332.158C216.071 331.776 215.686 330.676 216.748 327.984C217.754 325.432 219.775 322.253 222.646 318.698C228.359 311.625 236.943 303.669 245.67 297.154C254.499 290.563 263.02 285.793 268.614 284.624C271.498 284.022 272.55 284.579 272.875 284.924C273.246 285.319 273.961 286.756 273.069 290.863C272.288 294.452 271.401 297.242 270.55 299.917C268.687 305.773 268.5 311.076 268.5 323C268.5 343.401 281.713 361.443 298.511 371.165Z"
    fill="#FFCCCC" />
  <mask id="mask0_2_4" style="mask-type:alpha" maskUnits="userSpaceOnUse" x="211" y="284" width="88" height="96">
    <path fill-rule="evenodd" clip-rule="evenodd"
      d="M298.511 371.165C287.857 377.055 268.3 380 255 380C239.063 380 221.662 377.342 211.827 373.68C220.668 367.082 225.5 360.256 225.5 354.5C225.5 344.876 222.475 339.831 218.023 334.25L218.022 334.249C217.475 333.563 216.921 332.869 216.368 332.158C216.071 331.776 215.686 330.676 216.748 327.984C217.754 325.432 219.775 322.253 222.646 318.698C228.359 311.625 236.943 303.669 245.67 297.154C254.499 290.563 263.02 285.793 268.614 284.624C271.498 284.022 272.55 284.579 272.875 284.924C273.246 285.319 273.961 286.756 273.069 290.863C272.288 294.452 271.401 297.242 270.55 299.917C268.687 305.773 268.5 311.076 268.5 323C268.5 343.401 281.713 361.443 298.511 371.165Z"
      fill="#FFCCCC" />
  </mask>
  <g mask="url(#mask0_2_4)">
    <path d="M197 288.5L196.5 261L289.5 260V288.5C289.5 288.5 254 351.5 231.5 351.5C215 351.5 197 288.5 197 288.5Z"
      fill="#FFAA99" />
  </g>
  <path
    d="M228.5 342C218.5 345.333 155 340.5 141.5 332C128 323.5 61 263 61 194C61 125 105.5 53 197.5 53C289.5 53 318 125 318 197C318 236 300.441 274.382 295.5 282.5C281.5 305.5 238.5 338.667 228.5 342Z"
    fill="#FFCCCC" />
  <mask id="mask1_2_4" style="mask-type:alpha" maskUnits="userSpaceOnUse" x="61" y="53" width="257" height="291">
    <path
      d="M228.5 342C218.5 345.333 155 340.5 141.5 332C128 323.5 61 263 61 194C61 125 105.5 53 197.5 53C289.5 53 318 125 318 197C318 236 300.441 274.382 295.5 282.5C281.5 305.5 238.5 338.667 228.5 342Z"
      fill="#FFCCCC" />
  </mask>
  <g mask="url(#mask1_2_4)">
    <path fill-rule="evenodd" clip-rule="evenodd"
      d="M218.383 155.435C220.057 167.92 221 181.483 221 196.5C221 211 220 249.5 215.5 276.5C248 225 249 171.5 249 151.5C249 146.015 248.547 140.57 247.697 135.214C270.086 182.568 277.5 230.579 277.5 259.5C277.5 276 277.5 309 265.399 349C315.767 293.084 323.598 246.939 324.79 218.707C323.741 247.02 318.923 263.31 314.328 278.848C310.372 292.224 306.581 305.044 305.5 324.5C311.333 309.843 317.658 297.199 323.659 285.203L323.66 285.202L323.66 285.202C337.72 257.095 350 232.547 350 194C350 105 290 32 208 32C109 32 38 106 38 204C38 297.612 105 359 178 387C171.539 316.816 187.242 278.247 201.146 244.099C201.431 243.397 201.716 242.698 202 242C211.505 218.63 221.068 191.831 218.383 155.435Z"
      fill="#FFAA99" />
  </g>
  <path fill-rule="evenodd" clip-rule="evenodd"
    d="M141.5 332C155 340.5 218.5 345.333 228.5 342C238.5 338.667 281.5 305.5 295.5 282.5C300.441 274.382 318 236 318 197C318 125 289.5 53 197.5 53C105.5 53 61 125 61 194C61 263 128 323.5 141.5 332ZM143.368 327.321C156.342 335.527 218.389 343.218 228 340C237.611 336.782 277.92 301.741 291.375 279.539C296.124 271.703 313 234.652 313 197.005C313 127.502 285.609 58 197.189 58C108.768 58 66 127.502 66 194.109C66 260.715 130.393 319.116 143.368 327.321Z"
    fill="#661133" />
  <path
    d="M280 232C279 242.5 275.313 250.59 264 256C241 267 216 245.5 216 228C216 223.5 227.148 213.055 247.5 206C285 193 281.612 215.077 280 232Z"
    fill="white">
    <animate attributeName="d" calcMode="spline" dur="5s" repeatCount="indefinite" keyTimes="0; 0.94; 0.97; 1"
      keySplines="0 0 0 0;0.5 0 0.9 1.0;0.1 0 0.5 1"
      values="
  M280 232C279 242.5 275.313 250.59 264 256C241 267 216 245.5 216 228C216 223.5 227.148 213.055 247.5 206C285 193 281.612 215.077 280 232Z;
  M280 232C279 242.5 275.313 250.59 264 256C241 267 216 245.5 216 228C216 223.5 227.148 213.055 247.5 206C285 193 281.612 215.077 280 232Z;
  M280 232C275 241.5 267.971 247 258.5 250.5C239.5 257.522 224 252 218.5 250.5C225 251 240.5 252 256.5 246.5C271.778 241.248 275.5 236.5 280 232Z;
  M280 232C279 242.5 275.313 250.59 264 256C241 267 216 245.5 216 228C216 223.5 227.148 213.055 247.5 206C285 193 281.612 215.077 280 232Z" />
  </path>
  <mask id="mask2_2_4" style="mask-type:alpha" maskUnits="userSpaceOnUse" x="216" y="202" width="65" height="58">
    <path
      d="M280 232C279 242.5 275.313 250.59 264 256C241 267 216 245.5 216 228C216 223.5 227.148 213.055 247.5 206C285 193 281.612 215.077 280 232Z"
      fill="white">
      <animate attributeName="d" calcMode="spline" dur="5s" repeatCount="indefinite" keyTimes="0; 0.94; 0.97; 1"
        keySplines="0 0 0 0;0.5 0 0.9 1.0;0.1 0 0.5 1"
        values="
  M280 232C279 242.5 275.313 250.59 264 256C241 267 216 245.5 216 228C216 223.5 227.148 213.055 247.5 206C285 193 281.612 215.077 280 232Z;
  M280 232C279 242.5 275.313 250.59 264 256C241 267 216 245.5 216 228C216 223.5 227.148 213.055 247.5 206C285 193 281.612 215.077 280 232Z;
  M280 232C275 241.5 267.971 247 258.5 250.5C239.5 257.522 224 252 218.5 250.5C225 251 240.5 252 256.5 246.5C271.778 241.248 275.5 236.5 280 232Z;
  M280 232C279 242.5 275.313 250.59 264 256C241 267 216 245.5 216 228C216 223.5 227.148 213.055 247.5 206C285 193 281.612 215.077 280 232Z" />
    </path>
  </mask>
  <g mask="url(#mask2_2_4)">
    <path
      d="M271.132 212.58C276.528 226.613 273.711 238.991 263.598 242.106C253.486 245.221 244.193 236.573 240.757 221.936C237.321 207.299 239.903 194.994 248.291 192.41C256.679 189.826 265.737 198.546 271.132 212.58Z"
      fill="#551155" />
    <path
      d="M270.209 212.611C273.989 224.884 271.813 235.39 262.421 238.283C253.029 241.176 245.319 233.716 241.538 221.443C237.074 206.95 241.959 196.453 248.88 194.321C255.8 192.19 265.745 198.118 270.209 212.611Z"
      fill="#EE2266" />
    <path
      d="M266.092 209.947C269.984 219.099 268.245 228.118 261.977 230.049C255.71 231.98 249.197 225.501 247.266 215.746C245.313 205.884 248.795 199.579 252.263 198.511C255.731 197.443 262.157 200.695 266.092 209.947Z"
      fill="#551155" />
    <path
      d="M265.369 210.693C268.08 217.706 267.065 224.296 260.8 226.226C254.535 228.156 249.987 223.278 248.282 215.956C246.577 208.633 248.329 201.816 252.852 200.422C257.375 199.029 262.659 203.68 265.369 210.693Z"
      fill="#EE2266" />
    <path d="M277 245C271.5 253 255 262 239 257C239 265 277 263.5 277 245Z" fill="#661133">
      <animate attributeName="d" calcMode="spline" dur="5s" repeatCount="indefinite" keyTimes="0; 0.94; 0.97; 1"
        keySplines="0 0 0 0;0.5 0 0.9 1.0;0.1 0 0.5 1" values="
  M277 245C271.5 253 255 262 239 257C239 265 277 263.5 277 245Z;
  M277 245C271.5 253 255 262 239 257C239 265 277 263.5 277 245Z;
  M275.5 239.5C269.5 245 252.5 254 237 254C237 262 275.5 258 275.5 239.5Z;
  M277 245C271.5 253 255 262 239 257C239 265 277 263.5 277 245Z" />
    </path>
    <g style="mix-blend-mode:multiply">
      <path
        d="M288 193.5C247.5 193.5 233 197 207 223.5C207 232.5 217 246 224 250C237 224 274 212 288 212C288 199.5 288 199.424 288 193.5Z"
        fill="#D5D5FF">
        <animate attributeName="d" calcMode="spline" dur="5s" repeatCount="indefinite" keyTimes="0; 0.94; 0.97; 1"
          keySplines="0 0 0 0;0.5 0 0.9 1.0;0.1 0 0.5 1"
          values="
  M288 193.5C247.5 193.5 233 197 207 223.5C207 232.5 217 246 224 250C237 224 274 212 288 212C288 199.5 288 199.424 288 193.5Z;
  M288 193.5C247.5 193.5 233 197 207 223.5C207 232.5 217 246 224 250C237 224 274 212 288 212C288 199.5 288 199.424 288 193.5Z;
  M288 193.5C247.5 193.5 233 197 207 223.5C207 232.5 211.5 246.5 218.5 250.5C239 255 267 250.5 280 232C280 219.5 288 199.424 288 193.5Z;
  M288 193.5C247.5 193.5 233 197 207 223.5C207 232.5 217 246 224 250C237 224 274 212 288 212C288 199.5 288 199.424 288 193.5Z" />
      </path>
    </g>
  </g>
  <path fill-rule="evenodd" clip-rule="evenodd"
    d="M215.383 143.435C217.057 155.92 218 169.483 218 184.5C218 199 217 237.5 212.5 264.5C245 213 246 159.5 246 139.5C246 134.015 245.547 128.57 244.697 123.214C267.086 170.568 274.5 218.579 274.5 247.5C274.5 264 274.5 297 262.399 337C312.767 281.084 320.598 234.939 321.79 206.707C320.741 235.02 315.923 251.31 311.328 266.848C307.372 280.224 303.581 293.044 302.5 312.5C308.333 297.843 314.658 285.199 320.659 273.203L320.66 273.202L320.66 273.202C334.72 245.095 347 220.547 347 182C347 93 287 20 205 20C106 20 35 94 35 192C35 285.612 102 347 175 375C168.539 304.816 184.242 266.247 198.146 232.099C198.431 231.397 198.716 230.698 199 230C208.505 206.63 218.068 179.831 215.383 143.435Z"
    fill="#660066" />
  <path fill-rule="evenodd" clip-rule="evenodd"
    d="M324 195C324 161.639 314.684 126.796 294.979 98.4117C313.452 127.143 322 162.293 322 195C322 221 318.5 271.5 262.399 337C275.5 298 276.5 264 276.5 247.5C276.5 217.248 267.779 165.702 242.33 116.24C244.053 123.981 245 131.955 245 140C245 160 243 213 212.5 264.5C218 237.5 219 199 219 184.5C219 143.308 211.518 113.051 201.426 86.005C223.501 150.88 213.077 192.929 198 230C196.864 232.794 195.69 235.618 194.498 238.486C180.891 271.218 164.886 309.72 175 375C102 345 41 285.612 41 192C41 94 106 24 205 24C287 24 344 93 344 182C344 219.965 332.088 245.542 319.282 273.038C313.536 285.375 307.61 298.098 302.5 312.5C304.18 293.393 308.24 280.723 312.386 267.787C318.112 249.919 324 231.544 324 195Z"
    fill="#9940BB" />
  <path fill-rule="evenodd" clip-rule="evenodd"
    d="M68.2789 290.048C51.2117 262.874 41 230.302 41 192C41 94 106 24 205 24C225.9 24 245.176 28.4824 262.298 36.6359C246.456 31.0296 229.552 28 212 28C147.481 28 91.7174 68.9349 65.2997 128.319C94.0398 136.956 128.695 142 166 142C182.375 142 198.24 141.028 213.318 139.207C214.397 150.742 214.323 161.441 213.389 171.493C185.22 178.265 154.358 182 122 182C97.4042 182 73.6726 179.842 51.3313 175.832C49.7984 185.638 48.9999 195.717 48.9999 206C48.9999 236.398 55.9775 265.016 68.2789 290.048ZM244.055 162.569C235.897 165.385 227.429 167.928 218.687 170.175C218.19 158.983 217.115 148.63 215.58 138.927C225.722 137.638 235.498 135.964 244.823 133.942C244.94 135.955 245 137.975 245 140C245 145.368 244.856 153.113 244.055 162.569ZM310.176 128.904C295.722 139.539 278.674 148.921 259.59 156.724C256.849 148.805 253.725 140.774 250.186 132.729C270.633 127.912 288.742 121.394 303.558 113.6C306.018 118.584 308.222 123.698 310.176 128.904ZM330.595 111.286C324.792 117.219 318.266 122.88 311.087 128.229C309.011 123.151 306.679 118.17 304.086 113.321C312.148 109.041 319.221 104.38 325.149 99.4084C327.108 103.257 328.925 107.22 330.595 111.286Z"
    fill="#DDFFFF" />
  <path
    d="M207 236C212 222 228.5 210.315 244.5 203.5C260.935 196.5 277 197.5 286.5 200C284 206 286 214 280 232C280.5 225 279 210 276 207.5C272.741 204.784 252.899 210.218 248 212C237 216 218 225.5 207 236Z"
    fill="#661133">
    <animate attributeName="d" calcMode="spline" dur="5s" repeatCount="indefinite" keyTimes="0; 0.94; 0.97; 1"
      keySplines="0 0 0 0;0.5 0 0.9 1.0;0.1 0 0.5 1"
      values="
M207 236C212 222 228.5 210.315 244.5 203.5C260.935 196.5 277 197.5 286.5 200C284 206 286 214 280 232C280.5 225 279 210 276 207.5C272.741 204.784 252.899 210.218 248 212C237 216 218 225.5 207 236Z;
M207 236C212 222 228.5 210.315 244.5 203.5C260.935 196.5 277 197.5 286.5 200C284 206 286 214 280 232C280.5 225 279 210 276 207.5C272.741 204.784 252.899 210.218 248 212C237 216 218 225.5 207 236Z;
M212 249.5C223.5 248.5 241.071 249.5 256.5 243.5C270.5 238.056 279.5 227.5 288 213C285.5 223 282.5 233.262 275 242.222C277.36 238.42 279 236 281 229.5C279 236 277 245.61 259.5 252.5C242 259.394 227 255 212 249.5Z;
M207 236C212 222 228.5 210.315 244.5 203.5C260.935 196.5 277 197.5 286.5 200C284 206 286 214 280 232C280.5 225 279 210 276 207.5C272.741 204.784 252.899 210.218 248 212C237 216 218 225.5 207 236Z" />
  </path>
  <path d="M211 225C217.5 218 225 212 234 207C224 210 215 216 211 225Z" fill="#661133">
    <animate attributeName="d" calcMode="spline" dur="5s" repeatCount="indefinite" keyTimes="0; 0.94; 0.97; 1"
      keySplines="0 0 0 0;0.5 0 0.9 1.0;0.1 0 0.5 1" values="
M211 225C217.5 218 225 212 234 207C224 210 215 216 211 225Z;
M211 225C217.5 218 225 212 234 207C224 210 215 216 211 225Z;
M212.5 229.5C220.5 226 230 221.5 238.5 216C228.5 219.5 219.5 224 212.5 229.5Z;
M211 225C217.5 218 225 212 234 207C224 210 215 216 211 225Z" />
  </path>
  <path
    d="M213.5 312C209.5 314 205 319 206.5 320C208 321 209.177 315.412 214 313C220 310 232 313.5 232 311C232 309 218.104 309.698 213.5 312Z"
    fill="#661133" />
  <path
    d="M193 291C192.5 290.5 191.521 289.26 191 289C190 288.5 189 288.5 188 288.5C188.5 290 188.5 290 189 290.5C189.5 291 192 291 193 291Z"
    fill="#661133" />
  <path
    d="M218 167.5C204 175.1 201 183.5 196 191.5C204.5 187 219.5 182 223.5 179.5C226.156 177.84 246 164 277 157C260.5 157 235.5 158 218 167.5Z"
    fill="#661133" />
</svg>